<svg width="40" height="20" viewBox="0 0 40 20" fill="none" xmlns="http://www.w3.org/2000/svg">
<path d="M-24.0402 19V0.818181H-17.0799C-15.766 0.818181 -14.674 1.02533 -13.804 1.43963C-12.9281 1.84801 -12.2741 2.40732 -11.842 3.11754C-11.404 3.82777 -11.1851 4.63269 -11.1851 5.53232C-11.1851 6.27214 -11.3271 6.90542 -11.6112 7.43217C-11.8953 7.95301 -12.277 8.37618 -12.7564 8.7017C-13.2358 9.02722 -13.7715 9.26101 -14.3633 9.40305V9.58061C-13.7182 9.61612 -13.0997 9.81439 -12.5079 10.1754C-11.9101 10.5305 -11.4218 11.0336 -11.043 11.6847C-10.6642 12.3357 -10.4748 13.1229 -10.4748 14.0462C-10.4748 14.9872 -10.7027 15.8336 -11.1584 16.5852C-11.6142 17.331 -12.3007 17.9199 -13.2181 18.3519C-14.1355 18.784 -15.2896 19 -16.6804 19H-24.0402ZM-20.7465 16.2479H-17.2042C-16.0087 16.2479 -15.1475 16.02 -14.6208 15.5643C-14.0881 15.1026 -13.8218 14.5108 -13.8218 13.7887C-13.8218 13.2501 -13.9549 12.7648 -14.2213 12.3327C-14.4876 11.8948 -14.8664 11.5515 -15.3576 11.3029C-15.8489 11.0484 -16.4348 10.9212 -17.1155 10.9212H-20.7465V16.2479ZM-20.7465 8.55078H-17.4883C-16.9201 8.55078 -16.4082 8.44721 -15.9525 8.24006C-15.4967 8.02699 -15.1387 7.7281 -14.8782 7.34339C-14.6119 6.95277 -14.4787 6.49112 -14.4787 5.95845C-14.4787 5.25414 -14.7273 4.67412 -15.2245 4.21839C-15.7157 3.76266 -16.4467 3.5348 -17.4173 3.5348H-20.7465V8.55078ZM-2.46462 19.2663C-3.83181 19.2663 -5.01256 18.9822 -6.00688 18.4141C-6.99528 17.84 -7.75581 17.0291 -8.28849 15.9815C-8.82116 14.928 -9.08749 13.6881 -9.08749 12.2617C-9.08749 10.859 -8.82116 9.62796 -8.28849 8.56854C-7.7499 7.5032 -6.99824 6.6746 -6.03351 6.08274C-5.06879 5.48497 -3.93538 5.18608 -2.6333 5.18608C-1.79286 5.18608 -0.999778 5.32221 -0.254039 5.59446C0.497618 5.86079 1.1605 6.27509 1.7346 6.83736C2.31462 7.39962 2.77035 8.11577 3.10179 8.9858C3.43322 9.84991 3.59894 10.8797 3.59894 12.0753V13.0607H-7.57826V10.8945H0.518333C0.512415 10.279 0.379247 9.73153 0.11883 9.25213C-0.141586 8.76681 -0.505578 8.38506 -0.973145 8.10689C-1.43479 7.82872 -1.97338 7.68963 -2.58891 7.68963C-3.24587 7.68963 -3.82293 7.84943 -4.32009 8.16903C-4.81725 8.48272 -5.20492 8.89702 -5.48309 9.41193C-5.75534 9.92093 -5.89443 10.4802 -5.90035 11.0898V12.9808C-5.90035 13.7739 -5.75534 14.4545 -5.46533 15.0227C-5.17532 15.585 -4.7699 16.017 -4.24907 16.3189C-3.72823 16.6148 -3.11862 16.7628 -2.42023 16.7628C-1.95267 16.7628 -1.52949 16.6977 -1.1507 16.5675C-0.771913 16.4313 -0.443433 16.2331 -0.165261 15.9727C0.112911 15.7122 0.323021 15.3897 0.465066 15.005L3.46578 15.3423C3.27638 16.1354 2.91535 16.8279 2.38268 17.4197C1.85593 18.0057 1.18121 18.4614 0.358532 18.7869C-0.464148 19.1065 -1.4052 19.2663 -2.46462 19.2663ZM9.49179 19.2752C8.62768 19.2752 7.84939 19.1213 7.15692 18.8136C6.47036 18.4999 5.92586 18.0382 5.52339 17.4286C5.12685 16.819 4.92858 16.0674 4.92858 15.1737C4.92858 14.4042 5.07062 13.768 5.35471 13.2649C5.63881 12.7618 6.02647 12.3594 6.51771 12.0575C7.00895 11.7557 7.56234 11.5278 8.17787 11.3739C8.79932 11.2141 9.44148 11.0987 10.1044 11.0277C10.9034 10.9448 11.5514 10.8709 12.0486 10.8058C12.5458 10.7347 12.9068 10.6282 13.1317 10.4862C13.3625 10.3382 13.4779 10.1103 13.4779 9.80256V9.74929C13.4779 9.08049 13.2797 8.56262 12.8831 8.19567C12.4866 7.82872 11.9154 7.64524 11.1697 7.64524C10.3825 7.64524 9.75812 7.81688 9.29648 8.16016C8.84075 8.50343 8.53298 8.90885 8.37318 9.37642L5.37247 8.95028C5.60921 8.12169 5.99984 7.42921 6.54434 6.87287C7.08885 6.31061 7.75469 5.89039 8.54186 5.61222C9.32903 5.32812 10.1991 5.18608 11.1519 5.18608C11.8089 5.18608 12.4629 5.26302 13.1139 5.4169C13.765 5.57079 14.3598 5.82528 14.8984 6.1804C15.437 6.52959 15.869 7.00604 16.1946 7.60973C16.526 8.21342 16.6917 8.96804 16.6917 9.87358V19H13.6022V17.1268H13.4957C13.3004 17.5056 13.0252 17.8607 12.6701 18.1921C12.3209 18.5176 11.8799 18.781 11.3473 18.9822C10.8205 19.1776 10.202 19.2752 9.49179 19.2752ZM10.3263 16.9137C10.9714 16.9137 11.5307 16.7865 12.0042 16.532C12.4777 16.2715 12.8417 15.9283 13.0962 15.5021C13.3566 15.076 13.4868 14.6114 13.4868 14.1083V12.5014C13.3862 12.5843 13.2146 12.6612 12.9719 12.7322C12.7352 12.8033 12.4688 12.8654 12.1729 12.9187C11.877 12.9719 11.584 13.0193 11.294 13.0607C11.004 13.1022 10.7524 13.1377 10.5394 13.1673C10.06 13.2324 9.63087 13.3389 9.25209 13.4869C8.8733 13.6348 8.57441 13.842 8.35542 14.1083C8.13644 14.3687 8.02694 14.7061 8.02694 15.1204C8.02694 15.7122 8.24297 16.1591 8.67503 16.4609C9.10708 16.7628 9.65751 16.9137 10.3263 16.9137ZM19.1733 19V5.36364H22.2894V7.63636H22.4314C22.68 6.8492 23.1061 6.24254 23.7098 5.81641C24.3194 5.38435 25.0149 5.16832 25.7961 5.16832C25.9737 5.16832 26.1719 5.1772 26.3909 5.19496C26.6158 5.20679 26.8023 5.22751 26.9502 5.2571V8.21342C26.8141 8.16607 26.5981 8.12464 26.3022 8.08913C26.0121 8.0477 25.731 8.02699 25.4588 8.02699C24.8728 8.02699 24.3461 8.15424 23.8785 8.40874C23.4169 8.65731 23.0529 9.00355 22.7865 9.44744C22.5202 9.89134 22.387 10.4033 22.387 10.9833V19H19.1733ZM39.1131 8.96804L36.1834 9.28764C36.1005 8.99171 35.9555 8.71354 35.7484 8.45312C35.5471 8.19271 35.2749 7.9826 34.9316 7.8228C34.5883 7.663 34.1681 7.5831 33.6709 7.5831C33.0021 7.5831 32.4399 7.7281 31.9842 8.01811C31.5343 8.30812 31.3124 8.68395 31.3183 9.1456C31.3124 9.54214 31.4574 9.8647 31.7533 10.1133C32.0552 10.3619 32.5523 10.5661 33.2448 10.7259L35.5708 11.223C36.861 11.5012 37.8199 11.9421 38.4472 12.5458C39.0805 13.1495 39.4001 13.9396 39.406 14.9162C39.4001 15.7744 39.1486 16.532 38.6514 17.1889C38.1602 17.84 37.4766 18.349 36.6006 18.7159C35.7247 19.0829 34.7185 19.2663 33.5822 19.2663C31.9131 19.2663 30.5696 18.9171 29.5516 18.2188C28.5336 17.5144 27.927 16.5349 27.7317 15.2802L30.8655 14.9783C31.0076 15.5939 31.3094 16.0585 31.7711 16.3722C32.2327 16.6858 32.8335 16.8427 33.5733 16.8427C34.3368 16.8427 34.9494 16.6858 35.411 16.3722C35.8786 16.0585 36.1123 15.6708 36.1123 15.2092C36.1123 14.8185 35.9614 14.496 35.6596 14.2415C35.3637 13.987 34.902 13.7917 34.2746 13.6555L31.9486 13.1673C30.6406 12.895 29.673 12.4363 29.0456 11.7912C28.4182 11.1402 28.1075 10.3175 28.1134 9.32315C28.1075 8.48272 28.3354 7.75473 28.797 7.1392C29.2646 6.51776 29.9127 6.03835 30.7413 5.70099C31.5758 5.35772 32.5375 5.18608 33.6266 5.18608C35.2246 5.18608 36.4823 5.5264 37.3996 6.20703C38.3229 6.88767 38.8941 7.808 39.1131 8.96804Z" fill="white" style="fill:white;fill-opacity:1;"/>
</svg>
