<svg width="170" height="40" viewBox="0 0 170 40" fill="none" xmlns="http://www.w3.org/2000/svg">
<g clip-path="url(#clip0_443_1939)">
<path fill-rule="evenodd" clip-rule="evenodd" d="M10.1813 2.5V40H0.166504V2.5H10.1813Z" fill="#283841" style="fill:#283841;fill:color(display-p3 0.1569 0.2196 0.2549);fill-opacity:1;"/>
<path fill-rule="evenodd" clip-rule="evenodd" d="M15.1887 2.5H36.4702C43.384 2.5 48.9887 8.09644 48.9887 15C48.9887 21.9036 43.384 27.5 36.4702 27.5H25.2035V40H15.1887V2.5ZM25.2035 17.5H36.4702C37.853 17.5 38.9739 16.3807 38.9739 15C38.9739 13.6193 37.853 12.5 36.4702 12.5H25.2035V17.5Z" fill="#283841" style="fill:#283841;fill:color(display-p3 0.1569 0.2196 0.2549);fill-opacity:1;"/>
<path fill-rule="evenodd" clip-rule="evenodd" d="M86.5443 2.5V21.875C86.5443 26.3623 90.1873 30 94.6813 30C99.1753 30 102.819 26.3623 102.819 21.875V2.5H112.834V21.875C112.834 31.8852 104.707 40 94.6813 40C84.6563 40 76.5295 31.8852 76.5295 21.875V2.5H86.5443Z" fill="#283841" style="fill:#283841;fill:color(display-p3 0.1569 0.2196 0.2549);fill-opacity:1;"/>
<path fill-rule="evenodd" clip-rule="evenodd" d="M52.7443 20C52.7443 10.335 60.5909 2.5 70.2702 2.5H72.7739V12.5H70.2702C66.1219 12.5 62.7591 15.8579 62.7591 20V21.25C62.7591 31.6053 54.352 40 43.9813 40H42.7295V30H43.9813C48.821 30 52.7443 26.0825 52.7443 21.25V20Z" fill="#283841" style="fill:#283841;fill:color(display-p3 0.1569 0.2196 0.2549);fill-opacity:1;"/>
<path d="M169.167 3.75C169.167 5.82107 167.486 7.5 165.411 7.5C163.337 7.5 161.656 5.82107 161.656 3.75C161.656 1.67893 163.337 0 165.411 0C167.486 0 169.167 1.67893 169.167 3.75Z" fill="#283841" style="fill:#283841;fill:color(display-p3 0.1569 0.2196 0.2549);fill-opacity:1;"/>
<path d="M123.587 39.9999L128.366 20.018L131.919 32.0392C134.037 39.209 144.208 39.209 146.327 32.0392L149.879 20.018L154.658 39.9999H164.954L157.44 8.57937C155.653 1.10732 145.108 0.830666 142.93 8.19879L139.123 21.0832L135.315 8.1988C133.138 0.830709 122.592 1.10728 120.805 8.57936L113.291 39.9999H123.587Z" fill="#283841" style="fill:#283841;fill:color(display-p3 0.1569 0.2196 0.2549);fill-opacity:1;"/>
</g>
<defs>
<clipPath id="clip0_443_1939">
<rect width="169" height="40" fill="white" style="fill:white;fill-opacity:1;" transform="translate(0.166504)"/>
</clipPath>
</defs>
</svg>
