<svg width="232" height="40" viewBox="0 0 232 40" fill="none" xmlns="http://www.w3.org/2000/svg">
<g clip-path="url(#clip0_443_1984)">
<path d="M20.3954 40C31.4414 40 40.3954 31.046 40.3954 20V6C40.3954 4.4087 39.7633 2.88258 38.6381 1.75736C37.5129 0.632141 35.9867 0 34.3954 0L21.3954 0V8.774C21.3954 10.776 21.5174 12.85 22.5674 14.554C23.3191 15.7752 24.3247 16.8204 25.5159 17.6188C26.7071 18.4171 28.0562 18.9499 29.4714 19.181L29.8544 19.243C30.0123 19.297 30.1494 19.399 30.2465 19.5347C30.3435 19.6704 30.3957 19.8331 30.3957 20C30.3957 20.1669 30.3435 20.3296 30.2465 20.4653C30.1494 20.601 30.0123 20.703 29.8544 20.757L29.4714 20.819C27.4036 21.1568 25.4941 22.1356 24.0126 23.6171C22.531 25.0987 21.5522 27.0082 21.2144 29.076L21.1524 29.459C21.0985 29.6169 20.9965 29.754 20.8607 29.851C20.725 29.9481 20.5623 30.0003 20.3954 30.0003C20.2286 30.0003 20.0659 29.9481 19.9301 29.851C19.7944 29.754 19.6924 29.6169 19.6384 29.459L19.5764 29.076C19.3453 27.6607 18.8125 26.3118 18.0141 25.1205C17.2158 23.9293 16.1706 22.9237 14.9494 22.172C13.2454 21.122 11.1714 21 9.16943 21H0.419434C0.942434 31.581 9.68543 40 20.3954 40Z" fill="#0E1534" style="fill:#0E1534;fill:color(display-p3 0.0549 0.0824 0.2039);fill-opacity:1;"/>
<path d="M0.395508 19H9.16951C11.1715 19 13.2455 18.878 14.9495 17.828C16.2815 17.0073 17.4028 15.886 18.2235 14.554C19.2735 12.85 19.3955 10.776 19.3955 8.774V0H6.39551C4.80421 0 3.27809 0.632141 2.15287 1.75736C1.02765 2.88258 0.395508 4.4087 0.395508 6L0.395508 19ZM46.8505 2C46.8505 2.53043 46.6398 3.03914 46.2647 3.41421C45.8896 3.78929 45.3809 4 44.8505 4C44.3201 4 43.8114 3.78929 43.4363 3.41421C43.0612 3.03914 42.8505 2.53043 42.8505 2C42.8505 1.46957 43.0612 0.960859 43.4363 0.585786C43.8114 0.210714 44.3201 0 44.8505 0C45.3809 0 45.8896 0.210714 46.2647 0.585786C46.6398 0.960859 46.8505 1.46957 46.8505 2Z" fill="#0E1534" style="fill:#0E1534;fill:color(display-p3 0.0549 0.0824 0.2039);fill-opacity:1;"/>
<path d="M61.6439 29V10.8182H64.9376V26.239H72.9454V29H61.6439ZM78.836 29.2752C77.9719 29.2752 77.1936 29.1213 76.5012 28.8136C75.8146 28.4999 75.2701 28.0382 74.8676 27.4286C74.4711 26.819 74.2728 26.0674 74.2728 25.1737C74.2728 24.4042 74.4149 23.768 74.699 23.2649C74.983 22.7618 75.3707 22.3594 75.8619 22.0575C76.3532 21.7557 76.9066 21.5278 77.5221 21.3739C78.1436 21.2141 78.7857 21.0987 79.4486 21.0277C80.2476 20.9448 80.8957 20.8709 81.3928 20.8058C81.89 20.7347 82.251 20.6282 82.4759 20.4862C82.7068 20.3382 82.8222 20.1103 82.8222 19.8026V19.7493C82.8222 19.0805 82.6239 18.5626 82.2274 18.1957C81.8308 17.8287 81.2597 17.6452 80.5139 17.6452C79.7268 17.6452 79.1024 17.8169 78.6407 18.1602C78.185 18.5034 77.8772 18.9089 77.7174 19.3764L74.7167 18.9503C74.9535 18.1217 75.3441 17.4292 75.8886 16.8729C76.4331 16.3106 77.0989 15.8904 77.8861 15.6122C78.6733 15.3281 79.5433 15.1861 80.4962 15.1861C81.1531 15.1861 81.8071 15.263 82.4582 15.4169C83.1092 15.5708 83.704 15.8253 84.2426 16.1804C84.7812 16.5296 85.2133 17.006 85.5388 17.6097C85.8702 18.2134 86.036 18.968 86.036 19.8736V29H82.9465V27.1268H82.8399C82.6446 27.5056 82.3694 27.8607 82.0143 28.1921C81.6651 28.5176 81.2242 28.781 80.6915 28.9822C80.1647 29.1776 79.5463 29.2752 78.836 29.2752ZM79.6705 26.9137C80.3157 26.9137 80.875 26.7865 81.3485 26.532C81.8219 26.2715 82.1859 25.9283 82.4404 25.5021C82.7008 25.076 82.8311 24.6114 82.8311 24.1083V22.5014C82.7304 22.5843 82.5588 22.6612 82.3161 22.7322C82.0794 22.8033 81.8131 22.8654 81.5171 22.9187C81.2212 22.9719 80.9282 23.0193 80.6382 23.0607C80.3482 23.1022 80.0967 23.1377 79.8836 23.1673C79.4042 23.2324 78.9751 23.3389 78.5963 23.4869C78.2175 23.6348 77.9186 23.842 77.6997 24.1083C77.4807 24.3687 77.3712 24.7061 77.3712 25.1204C77.3712 25.7122 77.5872 26.1591 78.0193 26.4609C78.4513 26.7628 79.0017 26.9137 79.6705 26.9137ZM88.6595 29V10.8182H91.8733V17.6186H92.0065C92.1722 17.2872 92.406 16.935 92.7078 16.5621C93.0097 16.1834 93.4181 15.8608 93.933 15.5945C94.4479 15.3222 95.1048 15.1861 95.9039 15.1861C96.9574 15.1861 97.9073 15.4554 98.7536 15.994C99.6059 16.5266 100.281 17.3168 100.778 18.3643C101.281 19.406 101.532 20.6844 101.532 22.1996C101.532 23.697 101.287 24.9695 100.796 26.017C100.304 27.0646 99.6355 27.8636 98.7892 28.4141C97.9428 28.9645 96.984 29.2397 95.9127 29.2397C95.1315 29.2397 94.4834 29.1095 93.9685 28.8491C93.4536 28.5887 93.0393 28.275 92.7256 27.908C92.4178 27.5352 92.1781 27.183 92.0065 26.8516H91.82V29H88.6595ZM91.8112 22.1818C91.8112 23.0637 91.9355 23.8361 92.184 24.4989C92.4385 25.1618 92.8025 25.6797 93.276 26.0526C93.7554 26.4195 94.3354 26.603 95.0161 26.603C95.7263 26.603 96.3211 26.4136 96.8005 26.0348C97.2799 25.6501 97.641 25.1263 97.8836 24.4634C98.1322 23.7946 98.2565 23.0341 98.2565 22.1818C98.2565 21.3355 98.1352 20.5838 97.8925 19.9268C97.6498 19.2699 97.2888 18.755 96.8094 18.3821C96.33 18.0092 95.7322 17.8228 95.0161 17.8228C94.3295 17.8228 93.7465 18.0033 93.2671 18.3643C92.7877 18.7254 92.4237 19.2314 92.1752 19.8825C91.9325 20.5335 91.8112 21.3 91.8112 22.1818ZM109.463 29.2663C108.131 29.2663 106.977 28.9734 106 28.3874C105.024 27.8015 104.266 26.9818 103.728 25.9283C103.195 24.8748 102.929 23.6437 102.929 22.2351C102.929 20.8265 103.195 19.5924 103.728 18.533C104.266 17.4736 105.024 16.6509 106 16.065C106.977 15.479 108.131 15.1861 109.463 15.1861C110.794 15.1861 111.949 15.479 112.925 16.065C113.902 16.6509 114.656 17.4736 115.189 18.533C115.728 19.5924 115.997 20.8265 115.997 22.2351C115.997 23.6437 115.728 24.8748 115.189 25.9283C114.656 26.9818 113.902 27.8015 112.925 28.3874C111.949 28.9734 110.794 29.2663 109.463 29.2663ZM109.48 26.6918C110.203 26.6918 110.806 26.4935 111.292 26.0969C111.777 25.6945 112.138 25.1559 112.375 24.4812C112.617 23.8065 112.739 23.0548 112.739 22.2262C112.739 21.3917 112.617 20.6371 112.375 19.9624C112.138 19.2817 111.777 18.7402 111.292 18.3377C110.806 17.9353 110.203 17.734 109.48 17.734C108.741 17.734 108.125 17.9353 107.634 18.3377C107.149 18.7402 106.785 19.2817 106.542 19.9624C106.305 20.6371 106.187 21.3917 106.187 22.2262C106.187 23.0548 106.305 23.8065 106.542 24.4812C106.785 25.1559 107.149 25.6945 107.634 26.0969C108.125 26.4935 108.741 26.6918 109.48 26.6918ZM117.975 29V15.3636H121.091V17.6364H121.233C121.481 16.8492 121.907 16.2425 122.511 15.8164C123.121 15.3844 123.816 15.1683 124.597 15.1683C124.775 15.1683 124.973 15.1772 125.192 15.195C125.417 15.2068 125.604 15.2275 125.752 15.2571V18.2134C125.615 18.1661 125.399 18.1246 125.103 18.0891C124.813 18.0477 124.532 18.027 124.26 18.027C123.674 18.027 123.147 18.1542 122.68 18.4087C122.218 18.6573 121.854 19.0036 121.588 19.4474C121.321 19.8913 121.188 20.4033 121.188 20.9833V29H117.975ZM135.065 29H131.549L137.95 10.8182H142.016L148.426 29H144.91L140.054 14.5469H139.912L135.065 29ZM135.18 21.8711H144.768V24.5167H135.18V21.8711ZM155.883 15.3636V17.8494H148.044V15.3636H155.883ZM149.98 12.0966H153.193V24.8984C153.193 25.3305 153.259 25.6619 153.389 25.8928C153.525 26.1177 153.702 26.2715 153.921 26.3544C154.14 26.4373 154.383 26.4787 154.649 26.4787C154.851 26.4787 155.034 26.4639 155.2 26.4343C155.371 26.4047 155.502 26.3781 155.59 26.3544L156.132 28.8668C155.96 28.926 155.715 28.9911 155.395 29.0621C155.081 29.1332 154.697 29.1746 154.241 29.1864C153.436 29.2101 152.711 29.0888 152.066 28.8224C151.421 28.5502 150.909 28.13 150.53 27.5618C150.157 26.9936 149.974 26.2834 149.98 25.4311V12.0966ZM164.631 15.3636V17.8494H156.791V15.3636H164.631ZM158.727 12.0966H161.941V24.8984C161.941 25.3305 162.006 25.6619 162.136 25.8928C162.272 26.1177 162.45 26.2715 162.669 26.3544C162.887 26.4373 163.13 26.4787 163.396 26.4787C163.598 26.4787 163.781 26.4639 163.947 26.4343C164.119 26.4047 164.249 26.3781 164.338 26.3544L164.879 28.8668C164.707 28.926 164.462 28.9911 164.142 29.0621C163.829 29.1332 163.444 29.1746 162.988 29.1864C162.183 29.2101 161.458 29.0888 160.813 28.8224C160.168 28.5502 159.656 28.13 159.277 27.5618C158.904 26.9936 158.721 26.2834 158.727 25.4311V12.0966ZM172.37 29.2663C171.038 29.2663 169.884 28.9734 168.908 28.3874C167.931 27.8015 167.173 26.9818 166.635 25.9283C166.102 24.8748 165.836 23.6437 165.836 22.2351C165.836 20.8265 166.102 19.5924 166.635 18.533C167.173 17.4736 167.931 16.6509 168.908 16.065C169.884 15.479 171.038 15.1861 172.37 15.1861C173.702 15.1861 174.856 15.479 175.832 16.065C176.809 16.6509 177.563 17.4736 178.096 18.533C178.635 19.5924 178.904 20.8265 178.904 22.2351C178.904 23.6437 178.635 24.8748 178.096 25.9283C177.563 26.9818 176.809 27.8015 175.832 28.3874C174.856 28.9734 173.702 29.2663 172.37 29.2663ZM172.388 26.6918C173.11 26.6918 173.713 26.4935 174.199 26.0969C174.684 25.6945 175.045 25.1559 175.282 24.4812C175.525 23.8065 175.646 23.0548 175.646 22.2262C175.646 21.3917 175.525 20.6371 175.282 19.9624C175.045 19.2817 174.684 18.7402 174.199 18.3377C173.713 17.9353 173.11 17.734 172.388 17.734C171.648 17.734 171.032 17.9353 170.541 18.3377C170.056 18.7402 169.692 19.2817 169.449 19.9624C169.212 20.6371 169.094 21.3917 169.094 22.2262C169.094 23.0548 169.212 23.8065 169.449 24.4812C169.692 25.1559 170.056 25.6945 170.541 26.0969C171.032 26.4935 171.648 26.6918 172.388 26.6918ZM180.882 29V15.3636H183.998V17.6364H184.14C184.388 16.8492 184.815 16.2425 185.418 15.8164C186.028 15.3844 186.723 15.1683 187.505 15.1683C187.682 15.1683 187.88 15.1772 188.099 15.195C188.324 15.2068 188.511 15.2275 188.659 15.2571V18.2134C188.523 18.1661 188.307 18.1246 188.011 18.0891C187.721 18.0477 187.44 18.027 187.167 18.027C186.581 18.027 186.055 18.1542 185.587 18.4087C185.125 18.6573 184.761 19.0036 184.495 19.4474C184.229 19.8913 184.096 20.4033 184.096 20.9833V29H180.882ZM193.258 21.0099V29H190.044V15.3636H193.116V17.6808H193.275C193.589 16.9173 194.089 16.3106 194.776 15.8608C195.468 15.411 196.323 15.1861 197.341 15.1861C198.282 15.1861 199.102 15.3873 199.801 15.7898C200.505 16.1922 201.049 16.7752 201.434 17.5387C201.825 18.3022 202.017 19.2285 202.011 20.3175V29H198.797V20.8146C198.797 19.9032 198.561 19.19 198.087 18.6751C197.62 18.1602 196.972 17.9027 196.143 17.9027C195.581 17.9027 195.081 18.027 194.643 18.2756C194.211 18.5182 193.87 18.8704 193.622 19.332C193.379 19.7937 193.258 20.353 193.258 21.0099ZM210.565 29.2663C209.198 29.2663 208.017 28.9822 207.023 28.4141C206.035 27.84 205.274 27.0291 204.741 25.9815C204.209 24.928 203.942 23.6881 203.942 22.2617C203.942 20.859 204.209 19.628 204.741 18.5685C205.28 17.5032 206.032 16.6746 206.996 16.0827C207.961 15.485 209.094 15.1861 210.396 15.1861C211.237 15.1861 212.03 15.3222 212.776 15.5945C213.527 15.8608 214.19 16.2751 214.764 16.8374C215.344 17.3996 215.8 18.1158 216.132 18.9858C216.463 19.8499 216.629 20.8797 216.629 22.0753V23.0607H205.452V20.8945H213.548C213.542 20.279 213.409 19.7315 213.149 19.2521C212.888 18.7668 212.524 18.3851 212.057 18.1069C211.595 17.8287 211.056 17.6896 210.441 17.6896C209.784 17.6896 209.207 17.8494 208.71 18.169C208.213 18.4827 207.825 18.897 207.547 19.4119C207.274 19.9209 207.135 20.4802 207.129 21.0898V22.9808C207.129 23.7739 207.274 24.4545 207.564 25.0227C207.854 25.585 208.26 26.017 208.781 26.3189C209.302 26.6148 209.911 26.7628 210.61 26.7628C211.077 26.7628 211.5 26.6977 211.879 26.5675C212.258 26.4313 212.586 26.2331 212.865 25.9727C213.143 25.7122 213.353 25.3897 213.495 25.005L216.496 25.3423C216.306 26.1354 215.945 26.8279 215.412 27.4197C214.886 28.0057 214.211 28.4614 213.388 28.7869C212.566 29.1065 211.625 29.2663 210.565 29.2663ZM220.204 34.1136C219.766 34.1136 219.361 34.0781 218.988 34.0071C218.621 33.942 218.328 33.8651 218.109 33.7763L218.855 31.2727C219.323 31.4089 219.74 31.474 220.107 31.468C220.474 31.4621 220.796 31.3467 221.074 31.1218C221.359 30.9028 221.598 30.5359 221.794 30.021L222.069 29.2841L217.124 15.3636H220.533L223.676 25.6619H223.818L226.969 15.3636H230.387L224.927 30.6513C224.673 31.3733 224.336 31.9918 223.915 32.5067C223.495 33.0276 222.98 33.4241 222.371 33.6964C221.767 33.9746 221.045 34.1136 220.204 34.1136Z" fill="white" style="fill:white;fill-opacity:1;"/>
</g>
<defs>
<clipPath id="clip0_443_1984">
<rect width="231.455" height="40" fill="white" style="fill:white;fill-opacity:1;" transform="translate(0.395508)"/>
</clipPath>
</defs>
</svg>
