<svg width="40" height="40" viewBox="0 0 40 40" fill="none" xmlns="http://www.w3.org/2000/svg">
<g clip-path="url(#clip0_443_1946)">
<path fill-rule="evenodd" clip-rule="evenodd" d="M14.5652 0C12.3088 0 10.1449 0.896337 8.5494 2.49183L0.850586 10.1906V13.7146C0.850586 16.2043 1.92003 18.4442 3.6246 20C1.92003 21.5558 0.850586 23.7957 0.850586 26.2854V29.8094L8.5494 37.5082C10.1449 39.1037 12.3088 40 14.5652 40C17.0549 40 19.2948 38.9306 20.8506 37.226C22.4064 38.9306 24.6463 40 27.136 40C29.3924 40 31.5563 39.1037 33.1518 37.5082L40.8506 29.8094V26.2854C40.8506 23.7957 39.7812 21.5558 38.0766 20C39.7812 18.4442 40.8506 16.2043 40.8506 13.7146V10.1906L33.1518 2.49183C31.5563 0.896337 29.3924 0 27.136 0C24.6463 0 22.4064 1.06944 20.8506 2.77401C19.2948 1.06944 17.0549 0 14.5652 0ZM26.6094 20C26.5135 19.9125 26.4194 19.8226 26.3272 19.7304L20.8506 14.2538L15.374 19.7304C15.2818 19.8226 15.1877 19.9125 15.0918 20C15.1877 20.0875 15.2818 20.1774 15.374 20.2696L20.8506 25.7462L26.3272 20.2696C26.4194 20.1774 26.5135 20.0875 26.6094 20ZM23.0728 29.8094V31.4924C23.0728 33.7364 24.892 35.5556 27.136 35.5556C28.2136 35.5556 29.2471 35.1275 30.0091 34.3655L36.4062 27.9684V26.2854C36.4062 24.0414 34.587 22.2222 32.343 22.2222C31.2654 22.2222 30.2319 22.6503 29.4699 23.4123L23.0728 29.8094ZM18.6284 29.8094L12.2313 23.4123C11.4693 22.6503 10.4358 22.2222 9.35821 22.2222C7.11418 22.2222 5.29503 24.0414 5.29503 26.2854V27.9684L11.6921 34.3655C12.4541 35.1275 13.4876 35.5556 14.5652 35.5556C16.8092 35.5556 18.6284 33.7364 18.6284 31.4924V29.8094ZM18.6284 8.50762V10.1906L12.2313 16.5877C11.4693 17.3497 10.4358 17.7778 9.35821 17.7778C7.11418 17.7778 5.29503 15.9586 5.29503 13.7146V12.0316L11.6921 5.63452C12.4541 4.87253 13.4876 4.44445 14.5652 4.44445C16.8092 4.44445 18.6284 6.26359 18.6284 8.50762ZM29.4699 16.5877L23.0728 10.1906V8.50762C23.0728 6.26359 24.892 4.44445 27.136 4.44445C28.2136 4.44445 29.2471 4.87253 30.0091 5.63452L36.4062 12.0316V13.7146C36.4062 15.9586 34.587 17.7778 32.343 17.7778C31.2654 17.7778 30.2319 17.3497 29.4699 16.5877Z" fill="#FF630B" style="fill:#FF630B;fill:color(display-p3 1.0000 0.3882 0.0431);fill-opacity:1;"/>
</g>
<defs>
<clipPath id="clip0_443_1946">
<rect width="191" height="40" fill="white" style="fill:white;fill-opacity:1;" transform="translate(0.850586)"/>
</clipPath>
</defs>
</svg>
