<svg width="179" height="38" viewBox="0 0 179 38" fill="none" xmlns="http://www.w3.org/2000/svg">
<g clip-path="url(#clip0_443_1922)">
<path d="M50.3695 20C50.4041 19.3338 50.4041 18.6662 50.3695 18H12.4205C12.4125 18.166 12.4055 18.333 12.4015 18.5H4.4515L4.4475 18.75H0.166504V19.25H4.4465L4.4525 19.5H12.4015C12.4055 19.668 12.4115 19.834 12.4215 20H23.3165C23.2751 19.6683 23.2544 19.3343 23.2545 19H39.2545C39.2545 19.339 39.2345 19.673 39.1925 20H50.3695ZM50.2905 17H39.0035C38.9157 16.6598 38.8055 16.3257 38.6735 16H23.8385C23.7075 16.324 23.5965 16.657 23.5085 17H12.4985C12.5165 16.833 12.5365 16.666 12.5585 16.5H4.6085L4.6425 16.256H0.166504V15.756H4.7215L4.7675 15.5H12.7175C12.7475 15.333 12.7815 15.166 12.8175 15H49.9735C50.1135 15.655 50.2205 16.322 50.2905 17ZM49.7305 14H37.5005C37.2121 13.64 36.8932 13.3054 36.5475 13H25.9635C25.6185 13.306 25.2985 13.64 25.0105 14H13.0605C13.1055 13.833 13.1535 13.666 13.2035 13.5H5.2535L5.3415 13.219H0.166504V12.718H5.5085L5.5865 12.499H13.5365C13.5965 12.331 13.6605 12.165 13.7265 11.999H49.0635C49.3215 12.649 49.5445 13.318 49.7305 14ZM48.6335 11H14.1565C14.2345 10.832 14.3145 10.666 14.3975 10.5H6.4485L6.5895 10.224H0.166504V9.72402H6.8605L6.9875 9.50002H14.9375C15.0345 9.33202 15.1345 9.16502 15.2365 9.00002H47.5535C47.9515 9.64202 48.3135 10.31 48.6335 11ZM12.4985 21H50.2915C50.2205 21.678 50.1135 22.346 49.9735 23H38.1855C38.3705 22.68 38.5345 22.346 38.6745 22H23.8365C23.9765 22.346 24.1395 22.68 24.3245 23H12.8165C12.7809 22.8338 12.7476 22.6671 12.7165 22.5H4.7675C4.75122 22.4121 4.73555 22.3241 4.7205 22.236H0.166504V21.736H4.6415C4.63002 21.6574 4.61902 21.5788 4.6085 21.5H12.5585C12.5363 21.3336 12.5163 21.1669 12.4985 21ZM13.0595 24H49.7295C49.5445 24.683 49.3215 25.35 49.0635 26H35.1315C35.6382 25.7188 36.113 25.3835 36.5475 25H25.9635C26.398 25.3835 26.8728 25.7188 27.3795 26H13.7265C13.6609 25.8342 13.5975 25.6676 13.5365 25.5H5.5865L5.5005 25.259H0.166504V24.759H5.3345C5.30723 24.6729 5.28056 24.5865 5.2545 24.5H13.2035C13.1535 24.334 13.1055 24.168 13.0595 24ZM14.1565 27H48.6335C48.3138 27.6877 47.9532 28.3555 47.5535 29H15.2365C15.1339 28.8349 15.0339 28.6682 14.9365 28.5H6.9875C6.9375 28.414 6.8885 28.328 6.8405 28.241H0.166504V27.741H6.5715L6.4485 27.501H14.3985C14.3154 27.3355 14.2347 27.1689 14.1565 27.001V27ZM17.0865 31.5C17.2335 31.67 17.3845 31.836 17.5385 32H45.2515C45.8417 31.3711 46.3886 30.7029 46.8885 30H15.9015C16.0215 30.169 16.1435 30.336 16.2695 30.5H8.3195L8.5175 30.755H0.166504V31.255H8.9265C8.9955 31.338 9.0655 31.419 9.1365 31.5H17.0865ZM20.4035 34.5C20.6465 34.673 20.8935 34.84 21.1435 35H41.6465C42.5669 34.4089 43.4348 33.7398 44.2405 33H18.5505C18.7355 33.17 18.9245 33.337 19.1165 33.5H11.1665C11.2745 33.592 11.3835 33.682 11.4935 33.77H0.166504V34.27H12.1385C12.2425 34.348 12.3485 34.425 12.4545 34.5H20.4045H20.4035ZM27.4205 37.584C28.7025 37.857 30.0315 38 31.3945 38C34.4485 38 37.3335 37.28 39.8895 36H22.8995C23.2555 36.178 23.6165 36.345 23.9835 36.5H16.0335C16.1755 36.56 16.3185 36.619 16.4615 36.676H0.166504V37.176H17.8915C19.6485 37.712 21.5135 38 23.4455 38C24.8085 38 26.1385 37.857 27.4205 37.584ZM15.9015 8.00002H46.8885C46.3886 7.29714 45.8417 6.62894 45.2515 6.00002H17.5385C17.3845 6.16402 17.2335 6.33002 17.0855 6.50002H9.1365L8.9605 6.70602H0.166504V7.20602H8.5485C8.4715 7.30302 8.3955 7.40102 8.3205 7.50002H16.2695C16.1435 7.66502 16.0215 7.83202 15.9015 8.00002ZM18.5495 5.00002H44.2395C43.4341 4.26027 42.5666 3.59114 41.6465 3.00002H21.1435C20.8935 3.16102 20.6465 3.32802 20.4035 3.50002H12.4545C12.3445 3.57902 12.2345 3.65802 12.1265 3.73902H0.166504V4.23902H11.4825C11.3765 4.32502 11.2715 4.41202 11.1675 4.50002H19.1165C18.9245 4.66302 18.7355 4.83002 18.5495 5.00002ZM22.9005 2.00002H39.8905C37.2534 0.680457 34.3443 -0.00442863 31.3955 2.15488e-05C30.0315 2.15488e-05 28.7025 0.144022 27.4205 0.417022C26.1138 0.139222 24.7814 -0.000544828 23.4455 2.15488e-05C21.3115 2.15488e-05 19.2605 0.352021 17.3455 1.00002H0.166504V1.50002H23.9835C23.6173 1.65525 23.2561 1.822 22.9005 2.00002Z" fill="#2F2352" style="fill:#2F2352;fill:color(display-p3 0.1843 0.1373 0.3216);fill-opacity:1;"/>
<path d="M76.1302 9.81818V28H73.2006L64.6334 15.6154H64.4825V28H61.1888V9.81818H64.1363L72.6945 22.2116H72.8543V9.81818H76.1302ZM84.7752 28.2663C83.4435 28.2663 82.2894 27.9734 81.3129 27.3874C80.3363 26.8015 79.5787 25.9818 79.0401 24.9283C78.5075 23.8748 78.2411 22.6437 78.2411 21.2351C78.2411 19.8265 78.5075 18.5924 79.0401 17.533C79.5787 16.4736 80.3363 15.6509 81.3129 15.065C82.2894 14.479 83.4435 14.1861 84.7752 14.1861C86.1069 14.1861 87.261 14.479 88.2376 15.065C89.2141 15.6509 89.9688 16.4736 90.5014 17.533C91.04 18.5924 91.3093 19.8265 91.3093 21.2351C91.3093 22.6437 91.04 23.8748 90.5014 24.9283C89.9688 25.9818 89.2141 26.8015 88.2376 27.3874C87.261 27.9734 86.1069 28.2663 84.7752 28.2663ZM84.793 25.6918C85.515 25.6918 86.1187 25.4935 86.604 25.0969C87.0894 24.6945 87.4504 24.1559 87.6871 23.4812C87.9298 22.8065 88.0511 22.0548 88.0511 21.2262C88.0511 20.3917 87.9298 19.6371 87.6871 18.9624C87.4504 18.2817 87.0894 17.7402 86.604 17.3377C86.1187 16.9353 85.515 16.734 84.793 16.734C84.0531 16.734 83.4376 16.9353 82.9464 17.3377C82.4611 17.7402 82.0971 18.2817 81.8544 18.9624C81.6177 19.6371 81.4993 20.3917 81.4993 21.2262C81.4993 22.0548 81.6177 22.8065 81.8544 23.4812C82.0971 24.1559 82.4611 24.6945 82.9464 25.0969C83.4376 25.4935 84.0531 25.6918 84.793 25.6918ZM93.287 28V14.3636H96.5008V28H93.287ZM94.9028 12.4283C94.3938 12.4283 93.9558 12.2596 93.5889 11.9222C93.2219 11.579 93.0384 11.1676 93.0384 10.6882C93.0384 10.2029 93.2219 9.79155 93.5889 9.45419C93.9558 9.11091 94.3938 8.93928 94.9028 8.93928C95.4177 8.93928 95.8557 9.11091 96.2167 9.45419C96.5837 9.79155 96.7671 10.2029 96.7671 10.6882C96.7671 11.1676 96.5837 11.579 96.2167 11.9222C95.8557 12.2596 95.4177 12.4283 94.9028 12.4283ZM99.0556 28V14.3636H102.172V16.6364H102.314C102.562 15.8492 102.988 15.2425 103.592 14.8164C104.202 14.3844 104.897 14.1683 105.678 14.1683C105.856 14.1683 106.054 14.1772 106.273 14.195C106.498 14.2068 106.685 14.2275 106.833 14.2571V17.2134C106.696 17.1661 106.48 17.1246 106.184 17.0891C105.894 17.0477 105.613 17.027 105.341 17.027C104.755 17.027 104.228 17.1542 103.761 17.4087C103.299 17.6573 102.935 18.0036 102.669 18.4474C102.403 18.8913 102.269 19.4033 102.269 19.9833V28H99.0556ZM113.693 28.2663C112.326 28.2663 111.145 27.9822 110.151 27.4141C109.162 26.84 108.402 26.0291 107.869 24.9815C107.337 23.928 107.07 22.6881 107.07 21.2617C107.07 19.859 107.337 18.628 107.869 17.5685C108.408 16.5032 109.159 15.6746 110.124 15.0827C111.089 14.485 112.222 14.1861 113.524 14.1861C114.365 14.1861 115.158 14.3222 115.904 14.5945C116.655 14.8608 117.318 15.2751 117.892 15.8374C118.472 16.3996 118.928 17.1158 119.259 17.9858C119.591 18.8499 119.757 19.8797 119.757 21.0753V22.0607H108.579V19.8945H116.676C116.67 19.279 116.537 18.7315 116.277 18.2521C116.016 17.7668 115.652 17.3851 115.185 17.1069C114.723 16.8287 114.184 16.6896 113.569 16.6896C112.912 16.6896 112.335 16.8494 111.838 17.169C111.34 17.4827 110.953 17.897 110.675 18.4119C110.402 18.9209 110.263 19.4802 110.257 20.0898V21.9808C110.257 22.7739 110.402 23.4545 110.692 24.0227C110.982 24.585 111.388 25.017 111.909 25.3189C112.429 25.6148 113.039 25.7628 113.737 25.7628C114.205 25.7628 114.628 25.6977 115.007 25.5675C115.386 25.4313 115.714 25.2331 115.992 24.9727C116.271 24.7122 116.481 24.3897 116.623 24.005L119.623 24.3423C119.434 25.1354 119.073 25.8279 118.54 26.4197C118.014 27.0057 117.339 27.4614 116.516 27.7869C115.694 28.1065 114.753 28.2663 113.693 28.2663ZM129.751 9.81818L134.483 24.1293H134.67L139.393 9.81818H143.015L136.605 28H132.539L126.138 9.81818H129.751ZM149.001 28.2663C147.669 28.2663 146.515 27.9734 145.538 27.3874C144.562 26.8015 143.804 25.9818 143.266 24.9283C142.733 23.8748 142.467 22.6437 142.467 21.2351C142.467 19.8265 142.733 18.5924 143.266 17.533C143.804 16.4736 144.562 15.6509 145.538 15.065C146.515 14.479 147.669 14.1861 149.001 14.1861C150.332 14.1861 151.487 14.479 152.463 15.065C153.44 15.6509 154.194 16.4736 154.727 17.533C155.266 18.5924 155.535 19.8265 155.535 21.2351C155.535 22.6437 155.266 23.8748 154.727 24.9283C154.194 25.9818 153.44 26.8015 152.463 27.3874C151.487 27.9734 150.332 28.2663 149.001 28.2663ZM149.019 25.6918C149.741 25.6918 150.344 25.4935 150.83 25.0969C151.315 24.6945 151.676 24.1559 151.913 23.4812C152.155 22.8065 152.277 22.0548 152.277 21.2262C152.277 20.3917 152.155 19.6371 151.913 18.9624C151.676 18.2817 151.315 17.7402 150.83 17.3377C150.344 16.9353 149.741 16.734 149.019 16.734C148.279 16.734 147.663 16.9353 147.172 17.3377C146.687 17.7402 146.323 18.2817 146.08 18.9624C145.843 19.6371 145.725 20.3917 145.725 21.2262C145.725 22.0548 145.843 22.8065 146.08 23.4812C146.323 24.1559 146.687 24.6945 147.172 25.0969C147.663 25.4935 148.279 25.6918 149.019 25.6918ZM157.513 28V14.3636H160.584V16.6808H160.744C161.028 15.8995 161.499 15.2899 162.156 14.8519C162.813 14.408 163.597 14.1861 164.508 14.1861C165.432 14.1861 166.21 14.411 166.843 14.8608C167.482 15.3047 167.932 15.9113 168.193 16.6808H168.335C168.637 15.9232 169.146 15.3195 169.862 14.8697C170.584 14.4139 171.439 14.1861 172.427 14.1861C173.682 14.1861 174.706 14.5826 175.499 15.3757C176.292 16.1688 176.689 17.3259 176.689 18.8469V28H173.466V19.3441C173.466 18.4978 173.241 17.8793 172.791 17.4886C172.342 17.0921 171.791 16.8938 171.14 16.8938C170.365 16.8938 169.758 17.1365 169.32 17.6218C168.888 18.1012 168.672 18.7256 168.672 19.495V28H165.52V19.2109C165.52 18.5066 165.307 17.9444 164.881 17.5241C164.461 17.1039 163.911 16.8938 163.23 16.8938C162.768 16.8938 162.348 17.0122 161.969 17.2489C161.59 17.4798 161.289 17.8082 161.064 18.2344C160.839 18.6546 160.726 19.1458 160.726 19.7081V28H157.513Z" fill="white" style="fill:white;fill-opacity:1;"/>
</g>
<defs>
<clipPath id="clip0_443_1922">
<rect width="178.229" height="38" fill="white" style="fill:white;fill-opacity:1;" transform="translate(0.166504)"/>
</clipPath>
</defs>
</svg>
