<svg width="214" height="40" viewBox="0 0 214 40" fill="none" xmlns="http://www.w3.org/2000/svg">
<g clip-path="url(#clip0_443_1948)">
<path fill-rule="evenodd" clip-rule="evenodd" d="M25.9512 11.6853C24.3067 10.5865 22.3733 10 20.3955 10V0C24.3511 0 28.2179 1.17298 31.5069 3.37061C34.7959 5.56823 37.3593 8.69181 38.8731 12.3463C40.3868 16.0008 40.7829 20.0222 40.0112 23.9018C39.2395 27.7814 37.3347 31.3451 34.5376 34.1421C31.7406 36.9392 28.1769 38.844 24.2973 39.6157C20.4177 40.3874 16.3963 39.9913 12.7418 38.4776C9.08731 36.9638 5.96374 34.4004 3.76612 31.1114C1.56849 27.8224 0.395508 23.9556 0.395508 20H10.3955C10.3955 21.9778 10.982 23.9112 12.0808 25.5557C13.1796 27.2002 14.7414 28.4819 16.5687 29.2388C18.3959 29.9957 20.4066 30.1937 22.3464 29.8078C24.2862 29.422 26.068 28.4696 27.4666 27.0711C28.8651 25.6725 29.8175 23.8907 30.2033 21.9509C30.5892 20.0111 30.3912 18.0004 29.6343 16.1732C28.8774 14.3459 27.5957 12.7841 25.9512 11.6853Z" fill="#007DFC" style="fill:#007DFC;fill:color(display-p3 0.0000 0.4902 0.9882);fill-opacity:1;"/>
<path fill-rule="evenodd" clip-rule="evenodd" d="M10.3955 5.28493e-06C10.3955 1.31322 10.1369 2.61358 9.6343 3.82684C9.13175 5.04009 8.39516 6.14248 7.46657 7.07107C6.53799 7.99966 5.4356 8.73625 4.22234 9.2388C3.00908 9.74134 1.70872 10 0.395508 10L0.395508 20C3.02194 20 5.62266 19.4827 8.04918 18.4776C10.4757 17.4725 12.6805 15.9993 14.5376 14.1421C16.3948 12.285 17.868 10.0802 18.8731 7.65367C19.8782 5.22715 20.3955 2.62643 20.3955 0L10.3955 5.28493e-06Z" fill="#007DFC" style="fill:#007DFC;fill:color(display-p3 0.0000 0.4902 0.9882);fill-opacity:1;"/>
<path d="M70.4353 19.9091C70.4353 21.8681 70.0683 23.546 69.3344 24.9428C68.6064 26.3337 67.6121 27.399 66.3515 28.1388C65.0967 28.8787 63.6733 29.2486 62.0812 29.2486C60.4891 29.2486 59.0628 28.8787 57.8021 28.1388C56.5474 27.3931 55.5531 26.3248 54.8192 24.9339C54.0912 23.5372 53.7272 21.8622 53.7272 19.9091C53.7272 17.95 54.0912 16.2751 54.8192 14.8842C55.5531 13.4875 56.5474 12.4192 57.8021 11.6793C59.0628 10.9395 60.4891 10.5696 62.0812 10.5696C63.6733 10.5696 65.0967 10.9395 66.3515 11.6793C67.6121 12.4192 68.6064 13.4875 69.3344 14.8842C70.0683 16.2751 70.4353 17.95 70.4353 19.9091ZM67.1238 19.9091C67.1238 18.5301 66.9078 17.3671 66.4758 16.4201C66.0496 15.4672 65.4578 14.7481 64.7002 14.2628C63.9426 13.7715 63.0696 13.5259 62.0812 13.5259C61.0928 13.5259 60.2198 13.7715 59.4623 14.2628C58.7047 14.7481 58.1099 15.4672 57.6778 16.4201C57.2517 17.3671 57.0386 18.5301 57.0386 19.9091C57.0386 21.2881 57.2517 22.4541 57.6778 23.407C58.1099 24.3539 58.7047 25.073 59.4623 25.5643C60.2198 26.0496 61.0928 26.2923 62.0812 26.2923C63.0696 26.2923 63.9426 26.0496 64.7002 25.5643C65.4578 25.073 66.0496 24.3539 66.4758 23.407C66.9078 22.4541 67.1238 21.2881 67.1238 19.9091ZM72.6571 34.1136V15.3636H75.8176V17.6186H76.0041C76.1698 17.2872 76.4036 16.935 76.7054 16.5621C77.0073 16.1834 77.4157 15.8608 77.9306 15.5945C78.4455 15.3222 79.1025 15.1861 79.9015 15.1861C80.955 15.1861 81.9049 15.4554 82.7512 15.994C83.6035 16.5266 84.2782 17.3168 84.7754 18.3643C85.2785 19.406 85.53 20.6844 85.53 22.1996C85.53 23.697 85.2844 24.9695 84.7931 26.017C84.3019 27.0646 83.6331 27.8636 82.7868 28.4141C81.9404 28.9645 80.9816 29.2397 79.9103 29.2397C79.1291 29.2397 78.481 29.1095 77.9661 28.8491C77.4512 28.5887 77.0369 28.275 76.7232 27.908C76.4154 27.5352 76.1757 27.183 76.0041 26.8516H75.8709V34.1136H72.6571ZM75.8088 22.1818C75.8088 23.0637 75.9331 23.8361 76.1816 24.4989C76.4361 25.1618 76.8001 25.6797 77.2736 26.0526C77.753 26.4195 78.333 26.603 79.0137 26.603C79.7239 26.603 80.3187 26.4136 80.7981 26.0348C81.2775 25.6501 81.6386 25.1263 81.8812 24.4634C82.1298 23.7946 82.2541 23.0341 82.2541 22.1818C82.2541 21.3355 82.1328 20.5838 81.8901 19.9268C81.6474 19.2699 81.2864 18.755 80.807 18.3821C80.3276 18.0092 79.7298 17.8228 79.0137 17.8228C78.3271 17.8228 77.7441 18.0033 77.2647 18.3643C76.7853 18.7254 76.4213 19.2314 76.1728 19.8825C75.9301 20.5335 75.8088 21.3 75.8088 22.1818ZM94.3414 15.3636V17.8494H86.5023V15.3636H94.3414ZM88.4377 12.0966H91.6515V24.8984C91.6515 25.3305 91.7166 25.6619 91.8468 25.8928C91.9829 26.1177 92.1605 26.2715 92.3794 26.3544C92.5984 26.4373 92.8411 26.4787 93.1074 26.4787C93.3087 26.4787 93.4921 26.4639 93.6578 26.4343C93.8295 26.4047 93.9597 26.3781 94.0485 26.3544L94.59 28.8668C94.4184 28.926 94.1728 28.9911 93.8532 29.0621C93.5395 29.1332 93.1548 29.1746 92.699 29.1864C91.8941 29.2101 91.1691 29.0888 90.524 28.8224C89.8788 28.5502 89.3669 28.13 88.9881 27.5618C88.6152 26.9936 88.4318 26.2834 88.4377 25.4311V12.0966ZM96.2792 29V15.3636H99.493V29H96.2792ZM97.895 13.4283C97.386 13.4283 96.948 13.2596 96.5811 12.9222C96.2141 12.579 96.0306 12.1676 96.0306 11.6882C96.0306 11.2029 96.2141 10.7915 96.5811 10.4542C96.948 10.1109 97.386 9.93928 97.895 9.93928C98.4099 9.93928 98.8479 10.1109 99.2089 10.4542C99.5758 10.7915 99.7593 11.2029 99.7593 11.6882C99.7593 12.1676 99.5758 12.579 99.2089 12.9222C98.8479 13.2596 98.4099 13.4283 97.895 13.4283ZM102.048 29V15.3636H105.119V17.6808H105.279C105.563 16.8995 106.034 16.2899 106.691 15.8519C107.348 15.408 108.132 15.1861 109.044 15.1861C109.967 15.1861 110.745 15.411 111.378 15.8608C112.018 16.3047 112.467 16.9113 112.728 17.6808H112.87C113.172 16.9232 113.681 16.3195 114.397 15.8697C115.119 15.4139 115.974 15.1861 116.963 15.1861C118.217 15.1861 119.241 15.5826 120.034 16.3757C120.827 17.1688 121.224 18.3259 121.224 19.8469V29H118.001V20.3441C118.001 19.4978 117.776 18.8793 117.327 18.4886C116.877 18.0921 116.326 17.8938 115.675 17.8938C114.9 17.8938 114.293 18.1365 113.855 18.6218C113.423 19.1012 113.207 19.7256 113.207 20.495V29H110.056V20.2109C110.056 19.5066 109.843 18.9444 109.416 18.5241C108.996 18.1039 108.446 17.8938 107.765 17.8938C107.303 17.8938 106.883 18.0122 106.504 18.2489C106.126 18.4798 105.824 18.8082 105.599 19.2344C105.374 19.6546 105.262 20.1458 105.262 20.7081V29H102.048ZM132.426 23.2649V15.3636H135.639V29H132.523V26.5763H132.381C132.074 27.3398 131.568 27.9643 130.863 28.4496C130.165 28.9349 129.304 29.1776 128.28 29.1776C127.386 29.1776 126.596 28.9793 125.909 28.5827C125.229 28.1803 124.696 27.5973 124.311 26.8338C123.927 26.0644 123.734 25.1352 123.734 24.0462V15.3636H126.948V23.549C126.948 24.4131 127.185 25.0997 127.658 25.6087C128.132 26.1177 128.753 26.3722 129.523 26.3722C129.996 26.3722 130.455 26.2567 130.899 26.0259C131.343 25.7951 131.707 25.4518 131.991 24.9961C132.281 24.5344 132.426 23.9574 132.426 23.2649ZM148.972 18.968L146.042 19.2876C145.959 18.9917 145.814 18.7135 145.607 18.4531C145.406 18.1927 145.134 17.9826 144.79 17.8228C144.447 17.663 144.027 17.5831 143.53 17.5831C142.861 17.5831 142.299 17.7281 141.843 18.0181C141.393 18.3081 141.171 18.6839 141.177 19.1456C141.171 19.5421 141.316 19.8647 141.612 20.1133C141.914 20.3619 142.411 20.5661 143.104 20.7259L145.43 21.223C146.72 21.5012 147.679 21.9421 148.306 22.5458C148.939 23.1495 149.259 23.9396 149.265 24.9162C149.259 25.7744 149.007 26.532 148.51 27.1889C148.019 27.84 147.335 28.349 146.46 28.7159C145.584 29.0829 144.577 29.2663 143.441 29.2663C141.772 29.2663 140.429 28.9171 139.411 28.2188C138.393 27.5144 137.786 26.5349 137.591 25.2802L140.724 24.9783C140.866 25.5939 141.168 26.0585 141.63 26.3722C142.092 26.6858 142.692 26.8427 143.432 26.8427C144.196 26.8427 144.808 26.6858 145.27 26.3722C145.737 26.0585 145.971 25.6708 145.971 25.2092C145.971 24.8185 145.82 24.496 145.518 24.2415C145.223 23.987 144.761 23.7917 144.134 23.6555L141.808 23.1673C140.5 22.895 139.532 22.4363 138.904 21.7912C138.277 21.1402 137.966 20.3175 137.972 19.3232C137.966 18.4827 138.194 17.7547 138.656 17.1392C139.123 16.5178 139.772 16.0384 140.6 15.701C141.435 15.3577 142.396 15.1861 143.485 15.1861C145.083 15.1861 146.341 15.5264 147.259 16.207C148.182 16.8877 148.753 17.808 148.972 18.968ZM156.758 29V10.8182H163.718C165.032 10.8182 166.124 11.0253 166.994 11.4396C167.87 11.848 168.524 12.4073 168.956 13.1175C169.394 13.8278 169.613 14.6327 169.613 15.5323C169.613 16.2721 169.471 16.9054 169.187 17.4322C168.903 17.953 168.521 18.3762 168.042 18.7017C167.562 19.0272 167.027 19.261 166.435 19.4031V19.5806C167.08 19.6161 167.699 19.8144 168.29 20.1754C168.888 20.5305 169.377 21.0336 169.755 21.6847C170.134 22.3357 170.324 23.1229 170.324 24.0462C170.324 24.9872 170.096 25.8336 169.64 26.5852C169.184 27.331 168.498 27.9199 167.58 28.3519C166.663 28.784 165.509 29 164.118 29H156.758ZM160.052 26.2479H163.594C164.79 26.2479 165.651 26.02 166.178 25.5643C166.71 25.1026 166.977 24.5108 166.977 23.7887C166.977 23.2501 166.843 22.7648 166.577 22.3327C166.311 21.8948 165.932 21.5515 165.441 21.3029C164.949 21.0484 164.364 20.9212 163.683 20.9212H160.052V26.2479ZM160.052 18.5508H163.31C163.878 18.5508 164.39 18.4472 164.846 18.2401C165.302 18.027 165.66 17.7281 165.92 17.3434C166.186 16.9528 166.32 16.4911 166.32 15.9585C166.32 15.2541 166.071 14.6741 165.574 14.2184C165.083 13.7627 164.352 13.5348 163.381 13.5348H160.052V18.5508ZM176.221 29.2752C175.357 29.2752 174.578 29.1213 173.886 28.8136C173.199 28.4999 172.655 28.0382 172.252 27.4286C171.856 26.819 171.658 26.0674 171.658 25.1737C171.658 24.4042 171.8 23.768 172.084 23.2649C172.368 22.7618 172.755 22.3594 173.247 22.0575C173.738 21.7557 174.291 21.5278 174.907 21.3739C175.528 21.2141 176.17 21.0987 176.833 21.0277C177.632 20.9448 178.28 20.8709 178.778 20.8058C179.275 20.7347 179.636 20.6282 179.861 20.4862C180.092 20.3382 180.207 20.1103 180.207 19.8026V19.7493C180.207 19.0805 180.009 18.5626 179.612 18.1957C179.216 17.8287 178.644 17.6452 177.899 17.6452C177.112 17.6452 176.487 17.8169 176.025 18.1602C175.57 18.5034 175.262 18.9089 175.102 19.3764L172.101 18.9503C172.338 18.1217 172.729 17.4292 173.273 16.8729C173.818 16.3106 174.484 15.8904 175.271 15.6122C176.058 15.3281 176.928 15.1861 177.881 15.1861C178.538 15.1861 179.192 15.263 179.843 15.4169C180.494 15.5708 181.089 15.8253 181.627 16.1804C182.166 16.5296 182.598 17.006 182.924 17.6097C183.255 18.2134 183.421 18.968 183.421 19.8736V29H180.331V27.1268H180.225C180.029 27.5056 179.754 27.8607 179.399 28.1921C179.05 28.5176 178.609 28.781 178.076 28.9822C177.55 29.1776 176.931 29.2752 176.221 29.2752ZM177.055 26.9137C177.7 26.9137 178.26 26.7865 178.733 26.532C179.207 26.2715 179.571 25.9283 179.825 25.5021C180.086 25.076 180.216 24.6114 180.216 24.1083V22.5014C180.115 22.5843 179.944 22.6612 179.701 22.7322C179.464 22.8033 179.198 22.8654 178.902 22.9187C178.606 22.9719 178.313 23.0193 178.023 23.0607C177.733 23.1022 177.481 23.1377 177.268 23.1673C176.789 23.2324 176.36 23.3389 175.981 23.4869C175.602 23.6348 175.303 23.842 175.084 24.1083C174.865 24.3687 174.756 24.7061 174.756 25.1204C174.756 25.7122 174.972 26.1591 175.404 26.4609C175.836 26.7628 176.387 26.9137 177.055 26.9137ZM189.116 21.0099V29H185.902V15.3636H188.974V17.6808H189.134C189.447 16.9173 189.948 16.3106 190.634 15.8608C191.327 15.411 192.182 15.1861 193.2 15.1861C194.141 15.1861 194.961 15.3873 195.659 15.7898C196.363 16.1922 196.908 16.7752 197.293 17.5387C197.683 18.3022 197.876 19.2285 197.87 20.3175V29H194.656V20.8146C194.656 19.9032 194.419 19.19 193.946 18.6751C193.478 18.1602 192.83 17.9027 192.001 17.9027C191.439 17.9027 190.939 18.027 190.501 18.2756C190.069 18.5182 189.729 18.8704 189.48 19.332C189.237 19.7937 189.116 20.353 189.116 21.0099ZM203.316 24.7209L203.307 20.8413H203.822L208.723 15.3636H212.478L206.45 22.0753H205.784L203.316 24.7209ZM200.387 29V10.8182H203.6V29H200.387ZM208.945 29L204.506 22.7944L206.672 20.5305L212.789 29H208.945Z" fill="white" style="fill:white;fill-opacity:1;"/>
</g>
<defs>
<clipPath id="clip0_443_1948">
<rect width="213" height="40" fill="white" style="fill:white;fill-opacity:1;" transform="translate(0.395508)"/>
</clipPath>
</defs>
</svg>
