<svg width="167" height="40" viewBox="0 0 167 40" fill="none" xmlns="http://www.w3.org/2000/svg">
<g clip-path="url(#clip0_443_1973)">
<path fill-rule="evenodd" clip-rule="evenodd" d="M8.94824 3.59787C7.51758 4.59823 6.22388 5.78098 5.10083 7.1124C9.69013 6.68633 15.5207 7.38204 22.2899 10.7667C29.5185 14.3809 35.3393 14.5031 39.3903 13.7217C39.0227 12.6088 38.5599 11.5392 38.0118 10.5224C33.3745 11.0115 27.4295 10.3641 20.5011 6.89998C16.1015 4.70018 12.2233 3.79401 8.94824 3.59787ZM35.3029 6.66665C31.6408 2.575 26.3189 0 20.3955 0C18.656 0 16.9682 0.222107 15.3592 0.63948C17.5384 1.23409 19.8534 2.10399 22.2899 3.32227C27.3625 5.85853 31.7419 6.67516 35.3029 6.66665ZM40.2564 17.6281C35.3624 18.5945 28.6043 18.396 20.5011 14.3444C12.9255 10.5566 6.89594 10.6043 2.82941 11.508C2.61951 11.5546 2.41455 11.6036 2.21454 11.6546C1.68213 12.8125 1.25714 14.0301 0.95221 15.2945C1.27789 15.2075 1.61444 15.1248 1.96167 15.0476C6.89508 13.9513 13.8656 13.9989 22.2899 18.2111C29.8656 21.9989 35.8951 21.9512 39.9617 21.0475C40.101 21.0166 40.2383 20.9846 40.3733 20.9516C40.3881 20.6363 40.3955 20.319 40.3955 20C40.3955 19.1975 40.3483 18.406 40.2564 17.6281ZM39.7203 25.1723C34.8738 26.0196 28.3125 25.6944 20.5011 21.7888C12.9255 18.001 6.89594 18.0487 2.82941 18.9524C1.92676 19.1529 1.11475 19.3972 0.398438 19.6551C0.396485 19.7698 0.395508 19.8848 0.395508 20C0.395508 31.0457 9.3498 40 20.3955 40C29.6526 40 37.4408 33.7109 39.7203 25.1723Z" fill="#7F57F1" style="fill:#7F57F1;fill:color(display-p3 0.4980 0.3412 0.9451);fill-opacity:1;"/>
<path d="M60.0699 15.8164C59.987 15.0411 59.6378 14.4374 59.0223 14.0053C58.4127 13.5733 57.6196 13.3572 56.643 13.3572C55.9565 13.3572 55.3676 13.4608 54.8763 13.668C54.3851 13.8751 54.0093 14.1562 53.7488 14.5114C53.4884 14.8665 53.3553 15.2719 53.3493 15.7276C53.3493 16.1064 53.4352 16.4349 53.6068 16.7131C53.7844 16.9912 54.0241 17.228 54.3259 17.4233C54.6278 17.6127 54.9622 17.7725 55.3291 17.9027C55.6961 18.0329 56.066 18.1424 56.4388 18.2312L58.1434 18.6573C58.8299 18.8171 59.4898 19.0331 60.1231 19.3054C60.7623 19.5777 61.3335 19.9209 61.8366 20.3352C62.3456 20.7495 62.748 21.2496 63.0439 21.8356C63.3399 22.4215 63.4878 23.1081 63.4878 23.8952C63.4878 24.9606 63.2156 25.8987 62.6711 26.7095C62.1266 27.5144 61.3394 28.1448 60.3096 28.6005C59.2857 29.0503 58.0457 29.2752 56.5898 29.2752C55.1752 29.2752 53.9471 29.0562 52.9055 28.6183C51.8697 28.1803 51.0589 27.5411 50.4729 26.7006C49.8929 25.8602 49.5792 24.8363 49.5319 23.6289H52.7723C52.8196 24.2622 53.0149 24.7889 53.3582 25.2092C53.7015 25.6294 54.1483 25.9431 54.6988 26.1502C55.2551 26.3574 55.8766 26.4609 56.5631 26.4609C57.2793 26.4609 57.9066 26.3544 58.4452 26.1413C58.9897 25.9223 59.4159 25.6205 59.7236 25.2358C60.0314 24.8452 60.1882 24.3894 60.1942 23.8686C60.1882 23.3951 60.0492 23.0045 59.7769 22.6967C59.5046 22.383 59.1229 22.1226 58.6317 21.9155C58.1463 21.7024 57.5782 21.513 56.9271 21.3473L54.8586 20.8146C53.3612 20.4299 52.1775 19.8469 51.3074 19.0657C50.4433 18.2785 50.0113 17.2339 50.0113 15.9318C50.0113 14.8606 50.3013 13.9225 50.8813 13.1175C51.4672 12.3126 52.2633 11.6882 53.2694 11.2443C54.2756 10.7945 55.4149 10.5696 56.6874 10.5696C57.9777 10.5696 59.1081 10.7945 60.0787 11.2443C61.0553 11.6882 61.8218 12.3067 62.3781 13.0998C62.9345 13.887 63.2215 14.7925 63.2393 15.8164H60.0699ZM65.5321 34.1136V15.3636H68.6926V17.6186H68.8791C69.0448 17.2872 69.2786 16.935 69.5804 16.5621C69.8823 16.1834 70.2907 15.8608 70.8056 15.5945C71.3205 15.3222 71.9775 15.1861 72.7765 15.1861C73.83 15.1861 74.7799 15.4554 75.6262 15.994C76.4785 16.5266 77.1532 17.3168 77.6504 18.3643C78.1535 19.406 78.405 20.6844 78.405 22.1996C78.405 23.697 78.1594 24.9695 77.6681 26.017C77.1769 27.0646 76.5081 27.8636 75.6618 28.4141C74.8154 28.9645 73.8566 29.2397 72.7853 29.2397C72.0041 29.2397 71.356 29.1095 70.8411 28.8491C70.3262 28.5887 69.9119 28.275 69.5982 27.908C69.2904 27.5352 69.0507 27.183 68.8791 26.8516H68.7459V34.1136H65.5321ZM68.6838 22.1818C68.6838 23.0637 68.8081 23.8361 69.0566 24.4989C69.3111 25.1618 69.6751 25.6797 70.1486 26.0526C70.628 26.4195 71.208 26.603 71.8887 26.603C72.5989 26.603 73.1937 26.4136 73.6731 26.0348C74.1525 25.6501 74.5136 25.1263 74.7562 24.4634C75.0048 23.7946 75.1291 23.0341 75.1291 22.1818C75.1291 21.3355 75.0078 20.5838 74.7651 19.9268C74.5224 19.2699 74.1614 18.755 73.682 18.3821C73.2026 18.0092 72.6048 17.8228 71.8887 17.8228C71.2021 17.8228 70.6191 18.0033 70.1397 18.3643C69.6603 18.7254 69.2963 19.2314 69.0478 19.8825C68.8051 20.5335 68.6838 21.3 68.6838 22.1818ZM80.4071 29V15.3636H83.5233V17.6364H83.6653C83.9139 16.8492 84.34 16.2425 84.9437 15.8164C85.5533 15.3844 86.2488 15.1683 87.03 15.1683C87.2076 15.1683 87.4058 15.1772 87.6248 15.195C87.8497 15.2068 88.0362 15.2275 88.1841 15.2571V18.2134C88.048 18.1661 87.832 18.1246 87.536 18.0891C87.246 18.0477 86.9649 18.027 86.6926 18.027C86.1067 18.027 85.58 18.1542 85.1124 18.4087C84.6507 18.6573 84.2868 19.0036 84.0204 19.4474C83.7541 19.8913 83.6209 20.4033 83.6209 20.9833V29H80.4071ZM89.5692 29V15.3636H92.783V29H89.5692ZM91.185 13.4283C90.676 13.4283 90.238 13.2596 89.8711 12.9222C89.5041 12.579 89.3207 12.1676 89.3207 11.6882C89.3207 11.2029 89.5041 10.7915 89.8711 10.4542C90.238 10.1109 90.676 9.93928 91.185 9.93928C91.6999 9.93928 92.1379 10.1109 92.4989 10.4542C92.8659 10.7915 93.0494 11.2029 93.0494 11.6882C93.0494 12.1676 92.8659 12.579 92.4989 12.9222C92.1379 13.2596 91.6999 13.4283 91.185 13.4283ZM98.5516 21.0099V29H95.3378V15.3636H98.4095V17.6808H98.5693C98.883 16.9173 99.3831 16.3106 100.07 15.8608C100.762 15.411 101.617 15.1861 102.635 15.1861C103.576 15.1861 104.396 15.3873 105.095 15.7898C105.799 16.1922 106.343 16.7752 106.728 17.5387C107.119 18.3022 107.311 19.2285 107.305 20.3175V29H104.091V20.8146C104.091 19.9032 103.855 19.19 103.381 18.6751C102.914 18.1602 102.265 17.9027 101.437 17.9027C100.875 17.9027 100.374 18.027 99.9365 18.2756C99.5045 18.5182 99.1642 18.8704 98.9156 19.332C98.6729 19.7937 98.5516 20.353 98.5516 21.0099ZM115.753 34.3977C114.598 34.3977 113.607 34.2409 112.778 33.9272C111.95 33.6194 111.284 33.2051 110.781 32.6843C110.278 32.1635 109.929 31.5864 109.733 30.9531L112.628 30.2518C112.758 30.5181 112.947 30.7815 113.196 31.0419C113.444 31.3082 113.779 31.5272 114.199 31.6989C114.625 31.8764 115.161 31.9652 115.806 31.9652C116.717 31.9652 117.472 31.7433 118.07 31.2994C118.667 30.8614 118.966 30.1393 118.966 29.1332V26.5497H118.807C118.641 26.8812 118.398 27.2215 118.079 27.5707C117.765 27.9199 117.348 28.2128 116.827 28.4496C116.312 28.6863 115.664 28.8047 114.883 28.8047C113.835 28.8047 112.885 28.5591 112.033 28.0678C111.186 27.5707 110.512 26.8308 110.009 25.8484C109.511 24.86 109.263 23.623 109.263 22.1374C109.263 20.64 109.511 19.3764 110.009 18.3466C110.512 17.3108 111.189 16.5266 112.042 15.994C112.894 15.4554 113.844 15.1861 114.891 15.1861C115.69 15.1861 116.347 15.3222 116.862 15.5945C117.383 15.8608 117.797 16.1834 118.105 16.5621C118.413 16.935 118.647 17.2872 118.807 17.6186H118.984V15.3636H122.153V29.2219C122.153 30.3879 121.875 31.3526 121.319 32.1161C120.763 32.8796 120.002 33.4508 119.037 33.8295C118.073 34.2083 116.978 34.3977 115.753 34.3977ZM115.779 26.2834C116.46 26.2834 117.04 26.1177 117.519 25.7862C117.999 25.4548 118.363 24.9783 118.611 24.3569C118.86 23.7354 118.984 22.9897 118.984 22.1197C118.984 21.2615 118.86 20.5098 118.611 19.8647C118.369 19.2196 118.008 18.7195 117.528 18.3643C117.055 18.0033 116.472 17.8228 115.779 17.8228C115.063 17.8228 114.465 18.0092 113.986 18.3821C113.506 18.755 113.145 19.2669 112.903 19.918C112.66 20.5631 112.539 21.297 112.539 22.1197C112.539 22.9542 112.66 23.6851 112.903 24.3125C113.151 24.9339 113.515 25.4193 113.995 25.7685C114.48 26.1117 115.075 26.2834 115.779 26.2834ZM124.839 29V10.8182H128.133V26.239H136.141V29H124.839ZM142.031 29.2752C141.167 29.2752 140.389 29.1213 139.696 28.8136C139.01 28.4999 138.465 28.0382 138.063 27.4286C137.666 26.819 137.468 26.0674 137.468 25.1737C137.468 24.4042 137.61 23.768 137.894 23.2649C138.178 22.7618 138.566 22.3594 139.057 22.0575C139.549 21.7557 140.102 21.5278 140.717 21.3739C141.339 21.2141 141.981 21.0987 142.644 21.0277C143.443 20.9448 144.091 20.8709 144.588 20.8058C145.085 20.7347 145.446 20.6282 145.671 20.4862C145.902 20.3382 146.017 20.1103 146.017 19.8026V19.7493C146.017 19.0805 145.819 18.5626 145.423 18.1957C145.026 17.8287 144.455 17.6452 143.709 17.6452C142.922 17.6452 142.298 17.8169 141.836 18.1602C141.38 18.5034 141.073 18.9089 140.913 19.3764L137.912 18.9503C138.149 18.1217 138.539 17.4292 139.084 16.8729C139.628 16.3106 140.294 15.8904 141.081 15.6122C141.869 15.3281 142.739 15.1861 143.691 15.1861C144.348 15.1861 145.002 15.263 145.653 15.4169C146.305 15.5708 146.899 15.8253 147.438 16.1804C147.977 16.5296 148.409 17.006 148.734 17.6097C149.066 18.2134 149.231 18.968 149.231 19.8736V29H146.142V27.1268H146.035C145.84 27.5056 145.565 27.8607 145.21 28.1921C144.86 28.5176 144.419 28.781 143.887 28.9822C143.36 29.1776 142.742 29.2752 142.031 29.2752ZM142.866 26.9137C143.511 26.9137 144.07 26.7865 144.544 26.532C145.017 26.2715 145.381 25.9283 145.636 25.5021C145.896 25.076 146.026 24.6114 146.026 24.1083V22.5014C145.926 22.5843 145.754 22.6612 145.511 22.7322C145.275 22.8033 145.008 22.8654 144.712 22.9187C144.417 22.9719 144.124 23.0193 143.834 23.0607C143.544 23.1022 143.292 23.1377 143.079 23.1673C142.6 23.2324 142.17 23.3389 141.792 23.4869C141.413 23.6348 141.114 23.842 140.895 24.1083C140.676 24.3687 140.566 24.7061 140.566 25.1204C140.566 25.7122 140.783 26.1591 141.215 26.4609C141.647 26.7628 142.197 26.9137 142.866 26.9137ZM151.855 29V10.8182H155.069V17.6186H155.202C155.368 17.2872 155.601 16.935 155.903 16.5621C156.205 16.1834 156.613 15.8608 157.128 15.5945C157.643 15.3222 158.3 15.1861 159.099 15.1861C160.153 15.1861 161.103 15.4554 161.949 15.994C162.801 16.5266 163.476 17.3168 163.973 18.3643C164.476 19.406 164.728 20.6844 164.728 22.1996C164.728 23.697 164.482 24.9695 163.991 26.017C163.5 27.0646 162.831 27.8636 161.984 28.4141C161.138 28.9645 160.179 29.2397 159.108 29.2397C158.327 29.2397 157.679 29.1095 157.164 28.8491C156.649 28.5887 156.235 28.275 155.921 27.908C155.613 27.5352 155.373 27.183 155.202 26.8516H155.015V29H151.855ZM155.006 22.1818C155.006 23.0637 155.131 23.8361 155.379 24.4989C155.634 25.1618 155.998 25.6797 156.471 26.0526C156.951 26.4195 157.531 26.603 158.211 26.603C158.922 26.603 159.516 26.4136 159.996 26.0348C160.475 25.6501 160.836 25.1263 161.079 24.4634C161.328 23.7946 161.452 23.0341 161.452 22.1818C161.452 21.3355 161.33 20.5838 161.088 19.9268C160.845 19.2699 160.484 18.755 160.005 18.3821C159.525 18.0092 158.928 17.8228 158.211 17.8228C157.525 17.8228 156.942 18.0033 156.462 18.3643C155.983 18.7254 155.619 19.2314 155.37 19.8825C155.128 20.5335 155.006 21.3 155.006 22.1818Z" fill="white" style="fill:white;fill-opacity:1;"/>
</g>
<defs>
<clipPath id="clip0_443_1973">
<rect width="166" height="40" fill="white" style="fill:white;fill-opacity:1;" transform="translate(0.395508)"/>
</clipPath>
</defs>
</svg>
